<svg xmlns="http://www.w3.org/2000/svg" xmlns:xlink="http://www.w3.org/1999/xlink" width="116.003" height="127.43" viewBox="0 0 116.003 127.43">
  <defs>
    <clipPath id="clip">
      <use xlink:href="#fill"/>
    </clipPath>
    <clipPath id="clip-2">
      <use xlink:href="#fill-2"/>
    </clipPath>
    <clipPath id="clip-3">
      <use xlink:href="#fill-3"/>
    </clipPath>
  </defs>
  <g id="ICo" transform="translate(-1177.922 -1079.08)">
    <g id="Bg_box" transform="translate(820 1)">
      <path id="Path_3039" data-name="Path 3039" d="M843.751,571.161l-36.93-21.323a21.076,21.076,0,0,0-21.072,0l-36.931,21.323a21.07,21.07,0,0,0-10.536,18.248v42.644A21.073,21.073,0,0,0,748.818,650.3l36.931,21.321a21.065,21.065,0,0,0,21.072,0l36.93-21.321a21.074,21.074,0,0,0,10.534-18.249V589.408A21.071,21.071,0,0,0,843.751,571.161Z" transform="translate(-380.36 531.064)" fill="#fff" opacity="0.517"/>
      <path id="Path_3040" data-name="Path 3040" d="M826.016,567.1,795.3,549.364a17.533,17.533,0,0,0-17.529,0L747.046,567.1a17.527,17.527,0,0,0-8.764,15.179v35.473a17.529,17.529,0,0,0,8.764,15.181l30.721,17.736a17.524,17.524,0,0,0,17.529,0l30.721-17.736a17.53,17.53,0,0,0,8.763-15.181V582.28A17.528,17.528,0,0,0,826.016,567.1Z" transform="translate(-370.607 541.778)" fill="#fff"/>
    </g>
    <g id="Icon" transform="translate(-144 96.538)">
      <g id="Group_96" data-name="Group 96" transform="translate(1340 1026)">
        <path id="Path_2994" data-name="Path 2994" d="M862.145,504.211v7.71H809V471h53.145v21.591" transform="translate(-797.709 -471)" fill="#fff" stroke="#179dc7" stroke-miterlimit="10" stroke-width="2"/>
        <rect id="Rectangle_346" data-name="Rectangle 346" width="53.145" height="4.783" transform="translate(11.291 0)" fill="#179dc7"/>
        <g id="Rectangle_347" data-name="Rectangle 347" transform="translate(10.76 3.189)" fill="#fff" stroke="#179dc7" stroke-miterlimit="10" stroke-width="2">
          <rect width="37.157" height="38.265" stroke="none"/>
          <rect x="1" y="1" width="35.157" height="36.265" fill="none"/>
        </g>
        <g id="Rectangle_348" data-name="Rectangle 348" transform="translate(17.669 25.51)" fill="#fff" stroke="#179dc7" stroke-miterlimit="10" stroke-width="3">
          <rect id="fill" width="10.098" height="2.657" stroke="none"/>
          <path d="M0,1.1572620868682861h10.09759521484375M8.59759521484375,0v2.657262086868286M10.09759521484375,1.5h-10.09759521484375M1.5,2.657262086868286v-2.657262086868286" fill="none" clip-path="url(#clip)"/>
        </g>
        <g id="Rectangle_349" data-name="Rectangle 349" transform="translate(17.669 30.824)" fill="#fff" stroke="#179dc7" stroke-miterlimit="10" stroke-width="3">
          <rect id="fill-2" width="19.664" height="1.594" stroke="none"/>
          <path d="M0,0.09435713291168213h19.663738250732422M18.163738250732422,0v1.5943571329116821M19.663738250732422,1.5h-19.663738250732422M1.5,1.5943571329116821v-1.5943571329116821" fill="none" clip-path="url(#clip-2)"/>
        </g>
        <g id="Rectangle_350" data-name="Rectangle 350" transform="translate(17.669 33.482)" fill="#fff" stroke="#179dc7" stroke-miterlimit="10" stroke-width="3">
          <rect id="fill-3" width="19.664" height="1.594" stroke="none"/>
          <path d="M0,0.09435713291168213h19.663738250732422M18.163738250732422,0v1.5943571329116821M19.663738250732422,1.5h-19.663738250732422M1.5,1.5943571329116821v-1.5943571329116821" fill="none" clip-path="url(#clip-3)"/>
        </g>
        <g id="Ellipse_88" data-name="Ellipse 88" transform="translate(17.624 8.612)" fill="#fff" stroke="#179dc7" stroke-miterlimit="10" stroke-width="3">
          <circle cx="1.594" cy="1.594" r="1.594" stroke="none"/>
          <circle cx="1.594" cy="1.594" r="0.094" fill="none"/>
        </g>
        <circle id="Ellipse_89" data-name="Ellipse 89" cx="0.797" cy="0.797" r="0.797" transform="translate(13.417 1.594)" fill="#fff"/>
        <circle id="Ellipse_90" data-name="Ellipse 90" cx="0.797" cy="0.797" r="0.797" transform="translate(15.809 1.594)" fill="#fff"/>
        <circle id="Ellipse_91" data-name="Ellipse 91" cx="0.797" cy="0.797" r="0.797" transform="translate(18.2 1.594)" fill="#fff"/>
        <g id="Rectangle_351" data-name="Rectangle 351" transform="translate(17.669 14.349)" fill="none" stroke="#179dc7" stroke-miterlimit="10" stroke-width="2">
          <rect width="22.852" height="9.035" stroke="none"/>
          <rect x="1" y="1" width="20.852" height="7.035" fill="none"/>
        </g>
        <rect id="Rectangle_352" data-name="Rectangle 352" width="4.252" height="4.252" transform="translate(50.087 7.972)" fill="none" stroke="#179dc7" stroke-miterlimit="10" stroke-width="1"/>
        <rect id="Rectangle_353" data-name="Rectangle 353" width="4.252" height="4.252" transform="translate(56.465 7.972)" fill="none" stroke="#179dc7" stroke-miterlimit="10" stroke-width="1"/>
        <rect id="Rectangle_354" data-name="Rectangle 354" width="4.252" height="4.252" transform="translate(50.087 14.349)" fill="none" stroke="#179dc7" stroke-miterlimit="10" stroke-width="1"/>
        <rect id="Rectangle_355" data-name="Rectangle 355" width="4.252" height="4.252" transform="translate(56.465 14.349)" fill="none" stroke="#179dc7" stroke-miterlimit="10" stroke-width="1"/>
        <g id="Group_91" data-name="Group 91" transform="translate(52.45 19.928)">
          <g id="Group_90" data-name="Group 90">
            <g id="Path_2995" data-name="Path 2995" transform="translate(-886.445 -508.496)" fill="#fff" stroke-miterlimit="10">
              <path d="M 887.4580078125 523.70751953125 C 887.4562377929688 523.70751953125 887.4548950195312 523.7074584960938 887.453857421875 523.7074584960938 C 887.4501342773438 523.706298828125 887.4449462890625 523.7008056640625 887.4449462890625 523.694580078125 C 887.4449462890625 518.1005859375 891.9960327148438 513.5494995117188 897.590087890625 513.5494995117188 L 900.62939453125 513.5494995117188 L 901.62939453125 513.5494995117188 L 901.62939453125 512.5494995117188 L 901.62939453125 509.5096435546875 C 901.62939453125 509.5070190429688 901.6311645507812 509.501708984375 901.6378784179688 509.4983520507812 C 901.6399536132812 509.4973449707031 901.6419677734375 509.4963073730469 901.645263671875 509.4963073730469 L 901.6483154296875 509.4986267089844 L 901.650390625 509.4991760253906 L 909.756103515625 515.5784301757812 C 909.7592163085938 515.5808715820312 909.7615966796875 515.5848999023438 909.7615966796875 515.5889282226562 C 909.7615966796875 515.5929565429688 909.7591552734375 515.5968627929688 909.7582397460938 515.59765625 L 901.6503295898438 521.6787109375 C 901.647705078125 521.6806030273438 901.6458740234375 521.6813354492188 901.6430053710938 521.6813354492188 C 901.6325073242188 521.677490234375 901.62939453125 521.6719360351562 901.62939453125 521.668212890625 L 901.62939453125 518.6282348632812 L 901.62939453125 517.6282348632812 L 900.62939453125 517.6282348632812 L 896.7593994140625 517.6282348632812 C 892.9013671875 517.6282348632812 889.4332885742188 519.7728881835938 887.7085571289062 523.225341796875 L 887.4703979492188 523.6998291015625 C 887.4666137695312 523.7074584960938 887.4581298828125 523.70751953125 887.4580078125 523.70751953125 Z" stroke="none"/>
              <path d="M 902.62939453125 511.4834594726562 L 902.62939453125 512.5494995117188 L 902.62939453125 514.5494995117188 L 900.62939453125 514.5494995117188 L 897.590087890625 514.5494995117188 C 894.1755981445312 514.5494995117188 891.1921997070312 516.430419921875 889.62158203125 519.2105712890625 C 891.5814819335938 517.5659790039062 894.085205078125 516.6282348632812 896.7593994140625 516.6282348632812 L 900.62939453125 516.6282348632812 L 902.62939453125 516.6282348632812 L 902.62939453125 518.6282348632812 L 902.62939453125 519.6943969726562 L 908.1033325195312 515.5888671875 L 902.62939453125 511.4834594726562 M 901.645263671875 508.496337890625 C 901.8604736328125 508.496337890625 902.0740356445312 508.5648193359375 902.2503662109375 508.6991577148438 L 910.3560791015625 514.7784423828125 C 910.6112060546875 514.96875 910.7615966796875 515.2705688476562 910.7615966796875 515.5889282226562 C 910.7615966796875 515.9072265625 910.6112060546875 516.2090454101562 910.3560791015625 516.3992919921875 L 902.2503662109375 522.4786987304688 C 902.0726318359375 522.61279296875 901.8584594726562 522.6812744140625 901.6429443359375 522.6812744140625 C 901.4879150390625 522.6812744140625 901.3321533203125 522.6458740234375 901.18896484375 522.5737915039062 C 900.8463134765625 522.4014892578125 900.62939453125 522.05078125 900.62939453125 521.668212890625 L 900.62939453125 518.6282348632812 L 896.7593994140625 518.6282348632812 C 893.2821044921875 518.6282348632812 890.1571044921875 520.5617065429688 888.6031494140625 523.6722412109375 L 888.3641357421875 524.1484375 C 888.189697265625 524.49658203125 887.835205078125 524.70751953125 887.4580078125 524.70751953125 C 887.380859375 524.70751953125 887.30224609375 524.6995849609375 887.2252197265625 524.6809692382812 C 886.7691650390625 524.5736694335938 886.4449462890625 524.1644287109375 886.4449462890625 523.694580078125 C 886.4449462890625 517.5482788085938 891.44384765625 512.5494995117188 897.590087890625 512.5494995117188 L 900.62939453125 512.5494995117188 L 900.62939453125 509.5096435546875 C 900.62939453125 509.1270141601562 900.8463134765625 508.7761840820312 901.1905517578125 508.60400390625 C 901.3341674804688 508.5318603515625 901.4901733398438 508.4962768554688 901.645263671875 508.496337890625 Z" stroke="none" fill="#179dc7"/>
            </g>
          </g>
        </g>
        <g id="Group_92" data-name="Group 92" transform="translate(69.764 6.587)">
          <path id="Path_2996" data-name="Path 2996" d="M923.771,501.811h1.446a.991.991,0,1,0,0-1.983h-1.446a.991.991,0,1,0,0,1.983Z" transform="translate(-922.78 -496.241)" fill="#179dc7"/>
          <path id="Path_2997" data-name="Path 2997" d="M927.637,505.541a.992.992,0,0,0,.991-.991V503.1a.992.992,0,0,0-1.984,0v1.447A.992.992,0,0,0,927.637,505.541Z" transform="translate(-923.024 -496.385)" fill="#179dc7"/>
          <path id="Path_2998" data-name="Path 2998" d="M931.4,499.828h-1.447a.991.991,0,1,0,0,1.983H931.4a.991.991,0,1,0,0-1.983Z" transform="translate(-923.17 -496.241)" fill="#179dc7"/>
          <path id="Path_2999" data-name="Path 2999" d="M927.637,499.429a.992.992,0,0,0,.991-.991v-1.447a.992.992,0,0,0-1.984,0v1.447A.992.992,0,0,0,927.637,499.429Z" transform="translate(-923.024 -496)" fill="#179dc7"/>
        </g>
        <g id="Group_95" data-name="Group 95" transform="translate(0 15.313)">
          <g id="Group_94" data-name="Group 94" transform="translate(0)">
            <g id="Group_93" data-name="Group 93">
              <path id="Path_3000" data-name="Path 3000" d="M791.029,489.64a2.1,2.1,0,0,1-1.712-1.713.542.542,0,0,0-1.083,0,2.1,2.1,0,0,1-1.712,1.713.542.542,0,1,0,0,1.083,2.1,2.1,0,0,1,1.712,1.712.542.542,0,0,0,1.083,0,2.1,2.1,0,0,1,1.712-1.712.542.542,0,1,0,0-1.083Zm-2.254,1.316a3.1,3.1,0,0,0-.775-.775.775.775,0,1,1,1.55,0A3.089,3.089,0,0,0,788.775,490.956Z" transform="translate(-785.978 -487.385)" fill="#179dc7"/>
            </g>
          </g>
        </g>
      </g>
    </g>
  </g>
</svg>
